<svg id="Capa_1" enable-background="new 0 0 512 512" height="100" 
viewBox="0 0 512 512" width="506" xmlns="http://www.w3.org/2000/svg"><g><path d="m17.923 350.287c-11.566-29.179-17.923-60.99-17.923-94.286 0-140.533 112.372-254.317 252.895-255.983 142.808-1.693 259.105 113.563 259.105 255.982 0 32.993-6.241 64.528-17.608 93.489-4.403 11.218-15.333 18.511-27.385 18.511h-422.815c-11.548 0-22.014-6.978-26.269-17.713z" fill="#40c1fa"/><path d="m460.011 232.404c-.38-8.068-7.33-14.275-15.407-14.275-8.05 0-14.576-6.526-14.576-14.576v-.424c0-8.284-6.716-15-15-15h-30c-8.284 0-15 6.716-15 15v.424c0 8.05-6.526 14.576-14.576 14.576-8.077 0-15.027 6.207-15.407 14.275-.406 8.614 6.458 15.725 14.983 15.725h90c8.525 0 15.388-7.111 14.983-15.725zm-300.028 30.871c-.38-8.068-7.33-14.275-15.407-14.275-8.05 0-14.576-6.526-14.576-14.576v-.424c0-8.284-6.716-15-15-15h-30c-8.284 0-15 6.716-15 15v.424c0 8.05-6.526 14.576-14.576 14.576-8.077 0-15.027 6.207-15.407 14.275-.406 8.614 6.458 15.725 14.983 15.725h90c8.525 0 15.389-7.111 14.983-15.725zm100.84-234.275h-80c-8.284 0-15 6.716-15 15s6.716 15 15 15h80c8.284 0 15-6.716 15-15s-6.715-15-15-15zm-187.744 266h-31.383c-8.284 0-15 6.716-15 15 0 8.284 6.716 15 15 15h31.383c8.284 0 15-6.716 15-15 0-8.284-6.716-15-15-15zm397.332-27h-31.383c-8.284 0-15 6.716-15 15 0 8.284 6.716 15 15 15h31.383c8.284 0 15-6.716 15-15 0-8.284-6.716-15-15-15z" fill="#72d1fb"/><path d="m480 121.5c0 48.877-39.622 88.499-88.499 88.5-48.835.001-88.502-39.666-88.501-88.502.001-48.876 39.623-88.498 88.5-88.498 21.557 0 41.313 7.708 56.665 20.517 1.152.962 1.835 2.373 1.835 3.874v17.609c0 2.761 2.239 5 5 5h11.614c1.92 0 3.67 1.099 4.51 2.826 5.686 11.684 8.876 24.806 8.876 38.674z" fill="#ffc14f"/><path d="m418.514 205.801c-8.516 2.727-17.592 4.199-27.013 4.199-48.835.001-88.502-39.666-88.501-88.502.001-48.876 39.623-88.498 88.5-88.498 9.416 0 18.488 1.471 27 4.195-35.672 11.415-61.5 44.843-61.5 84.304-.001 39.426 25.854 72.876 61.514 84.302z" fill="#ffb52d"/><path d="m62.215 423.289c-19.056-22.055-34.411-47.397-45.099-75.062 3.415.894 6.956 1.465 10.59 1.677 13.83.806 26.634-3.501 36.698-11.207 6.797-5.204 16.335-5.265 23.125-.05 9.272 7.12 20.877 11.353 33.471 11.353 12.593 0 24.197-4.232 33.468-11.352 6.767-5.196 16.297-5.196 23.063 0 9.272 7.12 20.876 11.352 33.469 11.352s24.197-4.232 33.468-11.352c6.767-5.196 16.297-5.196 23.063 0 9.272 7.12 20.876 11.352 33.469 11.352s24.197-4.232 33.468-11.352c6.767-5.196 16.297-5.196 23.063 0 9.272 7.12 20.876 11.352 33.469 11.352 12.594 0 24.199-4.233 33.47-11.354 6.79-5.214 16.327-5.154 23.125.05 10.065 7.706 22.869 12.013 36.698 11.207 3.634-.212 7.175-.783 10.59-1.677-10.688 27.664-26.043 53.007-45.099 75.062-.743-.513-1.473-1.044-2.189-1.592-6.797-5.204-16.335-5.265-23.125-.05-9.271 7.121-20.876 11.354-33.47 11.354-12.593 0-24.197-4.232-33.468-11.352-6.767-5.196-16.297-5.196-23.063 0-9.272 7.12-20.876 11.352-33.469 11.352s-24.197-4.232-33.468-11.352c-6.767-5.196-16.297-5.196-23.063 0-9.272 7.12-20.876 11.352-33.469 11.352s-24.197-4.232-33.468-11.352c-6.767-5.196-16.297-5.196-23.063 0-9.272 7.12-20.876 11.352-33.469 11.352-12.594 0-24.199-4.233-33.47-11.354-6.79-5.214-16.327-5.154-23.125.05-.716.549-1.447 1.079-2.19 1.593z" fill="#2e5aac"/><path d="m64.405 412.197c6.797-5.204 16.335-5.265 23.125-.05 9.271 7.121 20.877 11.354 33.47 11.354s24.197-4.232 33.468-11.352c6.767-5.196 16.297-5.196 23.063 0 9.271 7.12 20.875 11.352 33.468 11.352s24.197-4.232 33.468-11.352c6.767-5.196 16.297-5.196 23.063 0 9.271 7.12 20.875 11.352 33.468 11.352s24.197-4.232 33.468-11.352c6.767-5.196 16.297-5.196 23.063 0 9.271 7.12 20.875 11.352 33.468 11.352 12.594 0 24.199-4.233 33.47-11.354 6.79-5.214 16.327-5.154 23.125.05 2.342 1.793 4.833 3.401 7.45 4.805-43.99 54.32-109.77 90.275-184.042 94.566-4.963.287-9.965-7.568-15-7.568-5.024 0-10.014 7.855-14.966 7.57-74.285-4.282-140.079-40.239-184.079-94.568 2.617-1.404 5.108-3.012 7.45-4.805z" fill="#4172cc"/><path d="m322.71 8.566-47.573 331.605c-.588 4.1-4.389 6.947-8.489 6.359-4.1-.588-6.947-4.389-6.359-8.489l47.573-331.605c.588-4.1 4.389-6.947 8.489-6.359 4.101.588 6.948 4.389 6.359 8.489z" fill="#c83c50"/><path d="m456 121.5c0 35.622-28.878 64.5-64.5 64.5s-64.5-28.878-64.5-64.5 28.878-64.5 64.5-64.5 64.5 28.878 64.5 64.5z" fill="#fff36c"/><path d="m436 121.5c0 24.577-19.923 44.5-44.5 44.5s-44.5-19.923-44.5-44.5 19.923-44.5 44.5-44.5 44.5 19.923 44.5 44.5z" fill="#ffea06"/><path d="m416 121.5c0 13.531-10.969 24.5-24.5 24.5s-24.5-10.969-24.5-24.5 10.969-24.5 24.5-24.5 24.5 10.969 24.5 24.5z" fill="#ffb52d"/><path d="m271 458.868v52.7c-4.963.287-9.965.432-15 .432s-10.037-.146-15-.432v-52.7c0-15.937-11.292-29.647-26.938-32.682-56.831-11.026-98.062-46.426-98.062-112.315 0-29.88 8.48-79.952 23.048-109.927 4.263-8.772 4.34-19.017.079-27.79-7.411-15.258-13.252-35.745-17.21-56.154h256.719c5.949 0 10.383 5.526 9.053 11.324-3.784 16.501-8.78 32.4-14.817 44.83-4.261 8.773-4.184 19.018.079 27.79 14.569 29.975 23.049 80.047 23.049 109.927 0 65.889-41.231 101.289-98.062 112.314-15.645 3.036-26.938 16.746-26.938 32.683z" fill="#d5f1fe"/><path d="m396 313.871c0 18.868-3.382 35.235-9.542 49.246-22.573 10.801-49.949 15.883-79.458 15.883-77.32 0-140-34.89-140-116.129 0-29.879 8.479-79.947 23.046-109.922 4.302-8.852 4.253-19.158-.028-28.021-.767-1.589-1.518-3.234-2.251-4.928h196.193c3.18 0 5.557 2.932 4.897 6.043-3.899 18.36-9.303 36.356-15.981 50.107-4.262 8.776-4.185 19.025.079 27.799 14.566 29.976 23.045 80.043 23.045 109.922z" fill="#fff5f5"/><path d="m306.724 120-31.586 220.171c-.588 4.1-4.389 6.947-8.489 6.359-4.1-.588-6.947-4.389-6.359-8.489l31.28-218.041z" fill="#d5f1fe"/><path d="m370 313.152c0 66.152-51.04 94.562-114 94.562s-114-28.41-114-94.562c0-28.69 9.6-80.241 25.61-100.866h176.78c16.01 20.625 25.61 72.176 25.61 100.866z" fill="#ffb52d"/><path d="m370 312.866c0 26.916-8.45 47.584-22.714 62.632-12.758 2.357-26.282 3.502-40.286 3.502-77.32 0-140-34.89-140-116.129 0-13.93 1.843-32.247 5.287-50.871h172.103c16.009 20.625 25.61 72.176 25.61 100.866z" fill="#ffc14f"/><path d="m261.569 165.539c-1.144 3.981-5.299 6.281-9.28 5.137l-85.973-24.707 62.167 64.321c2.879 2.978 2.798 7.726-.181 10.605s-7.727 2.798-10.605-.181l-61.543-63.675 22.877 85.549c1.07 4.002-1.306 8.113-5.308 9.183s-8.113-1.306-9.183-5.308l-23.108-86.417-23.108 86.417c-1.07 4.002-5.181 6.378-9.183 5.308s-6.378-5.181-5.308-9.183l22.877-85.549-61.543 63.675c-2.879 2.978-7.627 3.059-10.605.181-2.978-2.879-3.059-7.627-.181-10.605l62.167-64.321-85.973 24.707c-3.981 1.144-8.136-1.156-9.28-5.137s1.156-8.136 5.137-9.28l87.847-25.245-87.849-25.246c-3.981-1.144-6.281-5.299-5.137-9.28s5.299-6.281 9.28-5.137l85.973 24.707-62.166-64.32c-2.879-2.978-2.798-7.726.181-10.605 2.978-2.879 7.726-2.798 10.605.181l61.543 63.675-22.877-85.549c-1.07-4.002 1.306-8.113 5.308-9.183 4.001-1.07 8.113 1.306 9.183 5.308l23.108 86.417 23.108-86.417c1.07-4.002 5.181-6.378 9.183-5.308s6.378 5.181 5.308 9.183l-22.877 85.549 61.543-63.675c2.879-2.978 7.627-3.059 10.605-.181 2.978 2.879 3.059 7.627.181 10.605l-62.167 64.321 85.973-24.707c3.981-1.144 8.136 1.156 9.28 5.137s-1.156 8.136-5.137 9.28l-87.847 25.245 87.847 25.245c3.982 1.144 6.282 5.299 5.138 9.28z" fill="#842939"/><path d="m250.579 101.767v58.492l-29.246 50.656-50.656 29.246h-58.492l-50.656-29.246-29.246-50.655v-58.492l29.246-50.656 50.656-29.246h58.492l50.656 29.246z" fill="#f44545"/><path d="m141.431 130.162-.109-.108-29.137-108.189h58.492l-29.246 108.593-.086-.319zm79.902-79.05-79.902 79.346 109.148-28.691zm-79.902 80.753-29.246 108.296h58.492l-29.137-107.891 79.793 78.646 29.246-50.656-109.062-28.076zm-.109-1.811-79.793-78.943-29.246 50.656 109.062 28.372zm-79.793 80.862 79.902-79.05-109.148 28.394z" fill="#c83c50"/><path d="m162.85 93.318-32.564 77.594c-.803 1.914-2.659 3.066-4.612 3.066-.645 0-1.301-.125-1.933-.391-2.546-1.068-3.744-3.999-2.675-6.545l32.564-77.594c1.068-2.546 3.998-3.745 6.545-2.676 2.545 1.07 3.744 4 2.675 6.546zm-43.409 32.89c-10.691 0-19.389-9.744-19.389-21.721s8.698-21.72 19.389-21.72 19.389 9.743 19.389 21.72-8.698 21.721-19.389 21.721zm9.389-21.721c0-6.462-4.212-11.72-9.389-11.72s-9.389 5.258-9.389 11.72c0 6.463 4.212 11.721 9.389 11.721s9.389-5.258 9.389-11.721zm53.98 53.053c0 11.977-8.698 21.72-19.389 21.72s-19.389-9.743-19.389-21.72 8.698-21.721 19.389-21.721 19.389 9.744 19.389 21.721zm-10 0c0-6.463-4.212-11.721-9.389-11.721s-9.389 5.258-9.389 11.721c0 6.462 4.212 11.72 9.389 11.72s9.389-5.258 9.389-11.72z" fill="#fff5f5"/><path d="m283.393 283.477-26.87-26.87c-5.858-5.858-5.858-15.355 0-21.213l26.87-26.87c5.858-5.858 15.355-5.858 21.213 0l26.87 26.87c5.858 5.858 5.858 15.355 0 21.213l-26.87 26.87c-5.857 5.858-15.355 5.858-21.213 0zm-11.968 43.406v-18.849c0-8.284-6.716-15-15-15h-18.849c-8.284 0-15 6.716-15 15v18.849c0 8.284 6.716 15 15 15h18.849c8.284 0 15-6.716 15-15z" fill="#ffd993"/><path d="m338.425 336.034v18.849c0 8.284-6.716 15-15 15h-18.849c-8.284 0-15-6.716-15-15v-18.849c0-8.284 6.716-15 15-15h18.849c8.284 0 15 6.715 15 15z" fill="#ffcd71"/>
</g></svg>